<mxfile host="app.diagrams.net" modified="2023-12-27T08:29:07.573Z" agent="Mozilla/5.0 (Windows NT 10.0; Win64; x64) AppleWebKit/537.36 (KHTML, like Gecko) Chrome/120.0.0.0 Safari/537.36" version="22.1.12" etag="fJpVXfoBh9IbWaTCjtaU" type="github">
  <diagram name="Page-1" id="Ea_9fSqsjjMecgLwj58H">
    <mxGraphModel>
      <root>
        <mxCell id="0" />
        <mxCell id="1" parent="0" />
      </root>
    </mxGraphModel>
  </diagram>
</mxfile>
